<svg xmlns="http://www.w3.org/2000/svg" viewBox="0 0 64 64" id="arrows">
  <path fill="#53bf9f" d="m61.97 32.46.87.43-.94-.31c0 .01-.04.08-.04.09-.05.07-.1.13-.15.19L48.59 45.98a1.22 1.22 0 0 1-2.08-.86c0-.32.13-.63.36-.86l9.39-9.39a.972.972 0 0 0-.69-1.66H8.43a.972.972 0 0 0-.69 1.66l9.39 9.39c.23.23.36.54.36.86a1.22 1.22 0 0 1-2.08.86L2.29 32.86l-.14-.17-.88.4.82-.51c0-.01-.05-.1-.06-.11L2 32.33c-.01-.01-.03-.08-.04-.09-.03-.16-.03-.32.01-.48l.03-.1c0-.01.02-.11.02-.11l.08-.13c0-.01.04-.08.04-.09.05-.07.1-.13.15-.19l13.12-13.12a1.22 1.22 0 0 1 2.08.86c0 .32-.13.63-.36.86l-9.39 9.39a.963.963 0 0 0 .69 1.65l47.14.01a.972.972 0 0 0 .69-1.66l-9.39-9.39a1.22 1.22 0 0 1-.36-.86 1.22 1.22 0 0 1 2.08-.86l13.12 13.12.14.17.88-.4-.82.51c0 .01.05.1.06.11l.03.14.04.11c.03.15.03.31 0 .43l.91.34-.95-.22c0 .01-.03.12-.03.13z"></path>
  <path d="M18.5 42.89c.6.59.93 1.39.93 2.23s-.33 1.63-.93 2.23a3.157 3.157 0 0 1-4.46 0l-7.62-7.62 1.68-1.06 2.11-1.33 1.69-1.06 6.6 6.61zm45.44-10.27c-.02.09-.04.16-.07.23-.05.18-.07.27-.11.36-.04.09-.08.17-.13.26-.07.14-.11.21-.15.27-.13.19-.26.35-.4.49L49.96 47.35c-.6.6-1.39.92-2.23.92-.85 0-1.64-.32-2.23-.92-.6-.6-.93-1.39-.93-2.23s.33-1.64.93-2.23l7.73-7.74H13.68l3.08-1.94 3.86-2.43 3.07-1.93h29.54l-7.73-7.74c-.6-.59-.93-1.39-.93-2.23 0-.84.33-1.63.93-2.23a3.157 3.157 0 0 1 4.46 0l13.12 13.12a2.928 2.928 0 0 1 .52.7c.08.16.13.24.16.33.04.08.07.18.09.28.05.15.07.22.09.3.08.41.08.83 0 1.24z" opacity=".07"></path>
  <path fill="#2b2e63" d="M63.94 31.38a3.67 3.67 0 0 0-.09-.3c-.02-.1-.05-.2-.09-.28-.03-.09-.08-.17-.16-.33a2.928 2.928 0 0 0-.52-.7L49.96 16.65a3.157 3.157 0 0 0-4.46 0c-.6.6-.93 1.39-.93 2.23 0 .84.33 1.64.93 2.23l7.73 7.74H10.77l7.73-7.74c.6-.59.93-1.39.93-2.23 0-.84-.33-1.63-.93-2.23-1.19-1.19-3.27-1.19-4.46 0L.92 29.77c-.14.14-.27.3-.39.48-.05.07-.09.14-.16.28-.04.08-.09.17-.13.27-.04.09-.07.19-.11.35-.03.07-.05.14-.07.23-.08.41-.08.83 0 1.24.02.08.04.15.09.3.02.1.05.2.09.28.03.09.08.17.16.33a2.928 2.928 0 0 0 .52.7l13.12 13.12a3.157 3.157 0 0 0 4.46 0c.6-.6.93-1.39.93-2.23s-.33-1.64-.93-2.23l-6.6-6.61-1.13-1.13h42.46l-7.73 7.74c-.6.59-.93 1.39-.93 2.23s.33 1.63.93 2.23c.59.6 1.38.92 2.23.92.84 0 1.63-.32 2.23-.92l13.12-13.12c.14-.14.27-.3.4-.49.04-.06.08-.13.15-.27.05-.09.09-.17.13-.26.04-.09.06-.18.11-.36.03-.07.05-.14.07-.23.08-.41.08-.83 0-1.24zm-2.04 1.2c0 .01-.04.08-.04.09-.05.07-.1.13-.15.19L48.59 45.98a1.22 1.22 0 0 1-2.08-.86c0-.32.13-.63.36-.86l9.39-9.39a.972.972 0 0 0-.69-1.66H8.43a.972.972 0 0 0-.69 1.66l2.47 2.47 6.92 6.92c.23.23.36.54.36.86a1.22 1.22 0 0 1-2.08.86L2.29 32.86l-.14-.17-.06-.11c0-.01-.05-.1-.06-.11L2 32.33c-.01-.01-.03-.08-.04-.09-.03-.16-.03-.32.01-.48l.03-.1c0-.01.02-.11.02-.11l.08-.13c0-.01.04-.08.04-.09.05-.07.1-.13.15-.19l13.12-13.12a1.22 1.22 0 0 1 2.08.86c0 .32-.13.63-.36.86l-9.39 9.39a.963.963 0 0 0 .69 1.65h12.19l34.95.01a.972.972 0 0 0 .69-1.66l-9.39-9.39a1.22 1.22 0 0 1-.36-.86 1.22 1.22 0 0 1 2.08-.86l13.12 13.12.14.17.06.11c0 .01.05.1.06.11l.03.14.04.11c.03.15.03.31 0 .43l-.04.12c0 .01-.03.12-.03.13l-.07.12z"></path>
</svg>
